<svg xmlns="http://www.w3.org/2000/svg" width="16.115" height="18.657" viewBox="0 0 16.115 18.657"><g transform="translate(0 0)"><path d="M49.786,7.175,38.767.383a2.548,2.548,0,0,0-3.884,2.17V16.076a2.575,2.575,0,0,0,2.542,2.581h.011a2.557,2.557,0,0,0,1.321-.4A.727.727,0,1,0,38,17.017a1.116,1.116,0,0,1-.567.185,1.13,1.13,0,0,1-1.1-1.126V2.553A1.093,1.093,0,0,1,38,1.622L49.023,8.414a1.093,1.093,0,0,1,0,1.864l-7.967,4.878a.728.728,0,1,0,.76,1.241l7.966-4.877a2.548,2.548,0,0,0,.009-4.345Z" transform="translate(-34.883 0)"/></g></svg>